<svg xmlns="http://www.w3.org/2000/svg" width="37" height="29" viewBox="0 0 37 29">
  <g id="Grupo_47533" data-name="Grupo 47533" transform="translate(-1617 -364)">
    <g id="eyebrow" transform="translate(1623 372)">
      <path id="Trazado_94985" data-name="Trazado 94985" d="M24.761,15.264a.75.75,0,0,1,1.025.273l2.862,4.938a.75.75,0,0,1-1.3.752l-2.862-4.937a.75.75,0,0,1,.273-1.025Z" transform="translate(-3.237 -12.362)" fill="#b0b0b0" fill-rule="evenodd"/>
      <path id="Trazado_94986" data-name="Trazado 94986" d="M19.145,17.924a.75.75,0,0,1,.869.608L20.9,23.57a.75.75,0,1,1-1.477.26l-.888-5.038A.75.75,0,0,1,19.145,17.924Z" transform="translate(-3.237 -12.362)" fill="#b0b0b0" fill-rule="evenodd"/>
      <path id="Trazado_94987" data-name="Trazado 94987" d="M12.842,17.911a.75.75,0,0,1,.609.868l-.887,5.05a.75.75,0,1,1-1.477-.26l.887-5.05a.75.75,0,0,1,.868-.609Z" transform="translate(-3.237 -12.362)" fill="#b0b0b0" fill-rule="evenodd"/>
      <path id="Trazado_94988" data-name="Trazado 94988" d="M7.225,15.263A.75.75,0,0,1,7.5,16.287L4.637,21.25a.75.75,0,0,1-1.3-.75L6.2,15.538A.75.75,0,0,1,7.225,15.263Z" transform="translate(-3.237 -12.362)" fill="#b0b0b0" fill-rule="evenodd"/>
      <path id="Trazado_94989" data-name="Trazado 94989" d="M3.529,12.529a.75.75,0,0,1,1.055.112,14.423,14.423,0,0,0,22.833,0,.75.75,0,0,1,1.167.943,15.923,15.923,0,0,1-25.167,0,.75.75,0,0,1,.112-1.055Z" transform="translate(-3.237 -12.362)" fill="#b0b0b0" fill-rule="evenodd"/>
    </g>
    <rect id="Rectángulo_27493" data-name="Rectángulo 27493" width="37" height="29" transform="translate(1617 364)" fill="none"/>
  </g>
</svg>
