<svg xmlns="http://www.w3.org/2000/svg" width="37" height="29" viewBox="0 0 37 29">
  <g id="Grupo_47534" data-name="Grupo 47534" transform="translate(-1573 -364)">
    <rect id="Rect치ngulo_27492" data-name="Rect치ngulo 27492" width="37" height="29" transform="translate(1573 364)" fill="none"/>
    <path id="Uni칩n_1" data-name="Uni칩n 1" d="M.179,12.309a.752.752,0,0,1-.123-.722.75.75,0,0,1,.123-.721,17.983,17.983,0,0,1,2.462-2.51L.1,3.95A.75.75,0,1,1,1.4,3.2L3.846,7.441a15.323,15.323,0,0,1,4.767-2.21L7.849.88A.75.75,0,0,1,9.327.62l.754,4.3a16.768,16.768,0,0,1,5.349,0L16.187.62a.75.75,0,0,1,1.477.26L16.9,5.227a15.307,15.307,0,0,1,4.774,2.209l2.443-4.212a.75.75,0,0,1,1.3.752L22.875,8.35a17.994,17.994,0,0,1,2.47,2.516.75.75,0,0,1,.124.722.752.752,0,0,1-.124.721,15.922,15.922,0,0,1-25.167,0Zm9.533-5.8a.691.691,0,0,1-.107.027l-.05.007a14.622,14.622,0,0,0-8.027,5.043,14.408,14.408,0,0,0,22.47,0,16.328,16.328,0,0,0-2.471-2.4l0,0a.736.736,0,0,1-.158-.122,13.948,13.948,0,0,0-8.6-2.864A14.761,14.761,0,0,0,9.712,6.512ZM8,11.65a4.84,4.84,0,1,1,4.84,4.84A4.842,4.842,0,0,1,8,11.65Zm1.76,0a3.08,3.08,0,1,0,3.08-3.08A3.081,3.081,0,0,0,9.76,11.65Z" transform="translate(1579 369)" fill="#b0b0b0"/>
  </g>
</svg>
