<svg xmlns="http://www.w3.org/2000/svg" xmlns:xlink="http://www.w3.org/1999/xlink" width="259.546" height="75.782" viewBox="0 0 259.546 75.782">
  <defs>
    <linearGradient id="linear-gradient" x1="0.5" y1="0.146" x2="0.5" y2="0.717" gradientUnits="objectBoundingBox">
      <stop offset="0" stop-color="#f06724"/>
      <stop offset="0.99" stop-color="#f69320"/>
    </linearGradient>
    <linearGradient id="linear-gradient-2" x1="0.5" y1="-0.159" x2="0.5" y2="0.615" xlink:href="#linear-gradient"/>
    <linearGradient id="linear-gradient-4" x1="0.5" y1="0.365" x2="0.5" y2="1.196" gradientUnits="objectBoundingBox">
      <stop offset="0" stop-color="#f1f1f1"/>
      <stop offset="1" stop-color="#a7a9ac"/>
    </linearGradient>
    <linearGradient id="linear-gradient-5" x1="0.5" y1="0.367" x2="0.5" y2="1.183" xlink:href="#linear-gradient-4"/>
    <linearGradient id="linear-gradient-6" x1="0.5" y1="0.369" x2="0.5" y2="1.19" xlink:href="#linear-gradient-4"/>
  </defs>
  <g id="Grupo_47545" data-name="Grupo 47545" transform="translate(-4703.88 -9523.72)">
    <g id="Grupo_47540" data-name="Grupo 47540" transform="translate(4703.88 9523.72)">
      <g id="Grupo_47544" data-name="Grupo 47544" transform="translate(0 0)">
        <g id="Grupo_47541" data-name="Grupo 47541" transform="translate(40.833 60.985)">
          <g id="Grupo_47540-2" data-name="Grupo 47540">
            <path id="Trazado_102161" data-name="Trazado 102161" d="M138.874,209.9V201.32h1.675l.252,1.241a3.653,3.653,0,0,1,2.772-1.241,2.256,2.256,0,0,1,2.216,1.178,4.092,4.092,0,0,1,2.753-1.178q2.957,0,2.957,3.261V209.9h-2.168v-5.4q0-1.429-1.293-1.43a2.668,2.668,0,0,0-1.857.867V209.9h-2.164v-5.377q0-1.456-1.193-1.456a2.479,2.479,0,0,0-1.79.867V209.9H138.87Z" transform="translate(-138.87 -198.215)" fill="#f69320"/>
            <path id="Trazado_102162" data-name="Trazado 102162" d="M175.56,205.573q0-4.313,4.25-4.313t4.25,4.313c0,2.876-1.416,4.306-4.25,4.306S175.571,208.445,175.56,205.573Zm4.25,2.657q2.084,0,2.083-2.69c0-1.794-.693-2.624-2.083-2.624s-2.083.875-2.083,2.624S178.421,208.23,179.81,208.23Z" transform="translate(-161.964 -198.177)" fill="#f69320"/>
            <path id="Trazado_102163" data-name="Trazado 102163" d="M198.35,201.32h2.29l2.083,6,2.168-6h2.29L203.69,209.9h-2.06l-3.276-8.582Z" transform="translate(-176.308 -198.215)" fill="#f69320"/>
            <path id="Trazado_102164" data-name="Trazado 102164" d="M225.284,192.94v1.716H223.12V192.94Zm0,3.105v8.582H223.12v-8.582Z" transform="translate(-191.899 -192.94)" fill="#f69320"/>
            <path id="Trazado_102165" data-name="Trazado 102165" d="M235.6,201.32q3.908,0,3.906,3.987a7.893,7.893,0,0,1-.074,1.064h-5.7q0,1.812,2.664,1.816a13.98,13.98,0,0,0,2.6-.245v1.716a13.335,13.335,0,0,1-2.761.245q-4.669,0-4.665-4.388C231.57,202.591,232.911,201.32,235.6,201.32Zm-1.864,3.55H237.4V204.8a1.584,1.584,0,0,0-1.8-1.782c-1.2,0-1.764.615-1.864,1.845Z" transform="translate(-197.218 -198.215)" fill="#f69320"/>
            <path id="Trazado_102166" data-name="Trazado 102166" d="M254.871,209.356v-1.8a8.83,8.83,0,0,0,3.3.571q1.4,0,1.4-.9c0-.6-.315-.856-.941-.856h-1.553a2.3,2.3,0,0,1-2.616-2.575c0-1.716,1.271-2.7,3.817-2.7a9.378,9.378,0,0,1,3.05.489v1.8a8.28,8.28,0,0,0-3.105-.571q-1.757,0-1.757.9c0,.6.341.86,1.023.86h1.39q2.863,0,2.861,2.576c0,1.719-1.215,2.7-3.646,2.7a9.911,9.911,0,0,1-3.22-.489Z" transform="translate(-211.625 -198.076)" fill="#f69320"/>
            <path id="Trazado_102167" data-name="Trazado 102167" d="M294.35,201.32h2.29l2.083,6,2.168-6h2.29L299.69,209.9h-2.06l-3.276-8.582Z" transform="translate(-236.733 -198.215)" fill="#f69320"/>
            <path id="Trazado_102168" data-name="Trazado 102168" d="M321.294,192.94v1.716H319.13V192.94Zm0,3.105v8.582H319.13v-8.582Z" transform="translate(-252.33 -192.94)" fill="#f69320"/>
            <path id="Trazado_102169" data-name="Trazado 102169" d="M335.582,204.113a15.129,15.129,0,0,1-3.85.515q-4.163,0-4.162-4.462,0-4.119,4.069-4.121a4.344,4.344,0,0,1,1.775.408V192.94h2.168Zm-2.168-5.825a3.014,3.014,0,0,0-1.682-.441q-2.018,0-2.02,2.264,0,2.69,2.1,2.69a5.244,5.244,0,0,0,1.6-.237Z" transform="translate(-257.643 -192.94)" fill="#f69320"/>
            <path id="Trazado_102170" data-name="Trazado 102170" d="M355.818,201.32q3.908,0,3.906,3.987a7.9,7.9,0,0,1-.074,1.064h-5.7q0,1.812,2.664,1.816a13.98,13.98,0,0,0,2.6-.245v1.716a13.336,13.336,0,0,1-2.761.245q-4.669,0-4.666-4.388C351.79,202.591,353.131,201.32,355.818,201.32Zm-1.86,3.55h3.661V204.8a1.584,1.584,0,0,0-1.8-1.782c-1.2,0-1.764.615-1.864,1.845Z" transform="translate(-272.888 -198.215)" fill="#f69320"/>
            <path id="Trazado_102171" data-name="Trazado 102171" d="M374.69,205.573q0-4.313,4.25-4.313t4.25,4.313c0,2.876-1.416,4.306-4.25,4.306S374.7,208.445,374.69,205.573Zm4.247,2.657q2.084,0,2.083-2.69c0-1.794-.693-2.624-2.083-2.624s-2.083.875-2.083,2.624S377.547,208.23,378.937,208.23Z" transform="translate(-287.301 -198.177)" fill="#f69320"/>
            <path id="Trazado_102172" data-name="Trazado 102172" d="M419.381,209.356v-1.8a8.83,8.83,0,0,0,3.3.571q1.4,0,1.4-.9c0-.6-.311-.856-.941-.856h-1.553a2.3,2.3,0,0,1-2.616-2.575c0-1.716,1.271-2.7,3.817-2.7a9.377,9.377,0,0,1,3.05.489v1.8a8.28,8.28,0,0,0-3.105-.571c-1.115,0-1.757.3-1.757.9s.341.86,1.023.86h1.39q2.863,0,2.861,2.576c0,1.719-1.215,2.7-3.646,2.7a9.911,9.911,0,0,1-3.22-.489Z" transform="translate(-315.172 -198.076)" fill="#f69320"/>
            <path id="Trazado_102173" data-name="Trazado 102173" d="M440.55,197.564h1.6l.326,1.39h2.157v1.716h-1.92v3.947q0,1.2,1.038,1.2h.882v1.716h-1.927q-2.157,0-2.157-2.312v-7.66Z" transform="translate(-328.755 -195.848)" fill="#f69320"/>
            <path id="Trazado_102174" data-name="Trazado 102174" d="M453.74,209.9V201.32h1.675l.271,1.1a3.408,3.408,0,0,1,2.387-1.1v1.749a2.926,2.926,0,0,0-2.168,1V209.9Z" transform="translate(-337.058 -198.215)" fill="#f69320"/>
            <path id="Trazado_102175" data-name="Trazado 102175" d="M469.852,201.32q3.908,0,3.906,3.987a7.89,7.89,0,0,1-.074,1.064h-5.7q0,1.812,2.664,1.816a13.979,13.979,0,0,0,2.6-.245v1.716a13.348,13.348,0,0,1-2.764.245q-4.669,0-4.666-4.388c0-2.924,1.341-4.195,4.028-4.195Zm-1.864,3.55h3.661V204.8a1.584,1.584,0,0,0-1.8-1.782c-1.2,0-1.764.615-1.864,1.845Z" transform="translate(-344.661 -198.215)" fill="#f69320"/>
            <path id="Trazado_102176" data-name="Trazado 102176" d="M488.73,207.237q0-2.557,3.728-2.557a9.635,9.635,0,0,1,1.749.163V204.2q0-1.151-1.66-1.152a13.651,13.651,0,0,0-3.12.408v-1.716a13.5,13.5,0,0,1,3.12-.408q3.824,0,3.824,2.827v5.755h-1.26l-.767-.767a4.274,4.274,0,0,1-2.468.767q-3.146,0-3.146-2.672Zm3.724-1.086q-1.562,0-1.56,1.064,0,1.145,1.308,1.145a3.326,3.326,0,0,0,2-.671v-1.375A9.019,9.019,0,0,0,492.454,206.151Z" transform="translate(-359.081 -198.221)" fill="#f69320"/>
            <path id="Trazado_102177" data-name="Trazado 102177" d="M513.044,209.9V201.32h1.675l.252,1.241a3.653,3.653,0,0,1,2.772-1.241,2.256,2.256,0,0,1,2.216,1.178,4.093,4.093,0,0,1,2.753-1.178q2.957,0,2.957,3.261V209.9H523.5v-5.4q0-1.429-1.293-1.43a2.661,2.661,0,0,0-1.856.867V209.9h-2.168v-5.377q0-1.456-1.193-1.456a2.479,2.479,0,0,0-1.79.867V209.9H513.04Z" transform="translate(-374.383 -198.215)" fill="#f69320"/>
            <path id="Trazado_102178" data-name="Trazado 102178" d="M553,192.94v1.716H550.84V192.94Zm0,3.105v8.582H550.84v-8.582Z" transform="translate(-398.175 -192.94)" fill="#f69320"/>
            <path id="Trazado_102179" data-name="Trazado 102179" d="M560.39,209.9V201.32h1.675l.27,1.26a3.847,3.847,0,0,1,2.813-1.26q3.046,0,3.05,3.172v5.41H566.03v-5.41a1.254,1.254,0,0,0-1.416-1.423,3.2,3.2,0,0,0-2.06.841V209.9Z" transform="translate(-404.186 -198.215)" fill="#f69320"/>
            <path id="Trazado_102180" data-name="Trazado 102180" d="M592.127,209.257q0,3.758-4.521,3.761a8.956,8.956,0,0,1-2.813-.408v-1.716a9.026,9.026,0,0,0,2.828.408q2.34,0,2.338-1.96a5.236,5.236,0,0,1-2.075.408q-3.824,0-3.824-4.176c0-2.783,1.486-4.243,4.454-4.243a22.717,22.717,0,0,1,3.613.352v7.578Zm-2.168-5.985a4.591,4.591,0,0,0-1.512-.2q-2.246,0-2.249,2.475c0,1.649.645,2.394,1.938,2.394a4.076,4.076,0,0,0,1.823-.441v-4.232Z" transform="translate(-419.084 -198.221)" fill="#f69320"/>
          </g>
          <rect id="Rect치ngulo_27497" data-name="Rect치ngulo 27497" width="0.667" height="10.509" transform="translate(53.563 1.375)" fill="#fff"/>
          <rect id="Rect치ngulo_27498" data-name="Rect치ngulo 27498" width="0.667" height="10.509" transform="translate(99.447 1.375)" fill="#fff"/>
        </g>
        <g id="Grupo_47543" data-name="Grupo 47543" transform="translate(0 0)">
          <g id="Grupo_47542" data-name="Grupo 47542" transform="translate(138.472)">
            <path id="Trazado_102181" data-name="Trazado 102181" d="M402.35,81.44V28.37h9.835V47.443a15.314,15.314,0,0,1,11.766-4.973q13.841,0,13.841,14.4V81.44h-9.835V56.871q0-6.459-6.418-6.459a14.5,14.5,0,0,0-9.353,3.824v27.2H402.35Z" transform="translate(-402.35 -28.37)" fill="url(#linear-gradient)"/>
            <path id="Trazado_102182" data-name="Trazado 102182" d="M545.791,66.09v39.092h-7.682l-1.186-4.973a23.535,23.535,0,0,1-14.252,4.973q-11.951,0-11.951-14.137V66.09h9.835V90.785q0,6.459,5.64,6.459,4.786,0,9.761-3.824V66.09Z" transform="translate(-470.561 -52.112)" fill="url(#linear-gradient-2)"/>
            <path id="Trazado_102183" data-name="Trazado 102183" d="M618.09,28.37h9.835V45.442a17.238,17.238,0,0,1,9.835-2.968q16.626,0,16.624,18.7,0,20.261-19.036,20.263a101.447,101.447,0,0,1-17.258-1.6Zm9.835,44.05a25.773,25.773,0,0,0,7.83,1.075q8.9,0,8.9-12.581,0-10.278-7.682-10.28a20.255,20.255,0,0,0-9.057,2V72.42Z" transform="translate(-538.143 -28.37)" fill="url(#linear-gradient)"/>
          </g>
          <path id="Trazado_102184" data-name="Trazado 102184" d="M210.115,93.327,200.651,66.09H190.26l14.882,38.966h9.35L230.341,66.09H219.947Z" transform="translate(-130.383 -52.112)" fill="url(#linear-gradient-4)"/>
          <path id="Trazado_102185" data-name="Trazado 102185" d="M320.757,80.862H314.45a6.044,6.044,0,0,1-2.972-.626,3.432,3.432,0,0,1-1.668-3.272,3.332,3.332,0,0,1,2.394-3.246,14.852,14.852,0,0,1,5.588-.834,37.739,37.739,0,0,1,13.667,2.427c.145.056.289.111.434.17V67.317a42.333,42.333,0,0,0-13.841-2.227,31.121,31.121,0,0,0-8.686,1.056,14.274,14.274,0,0,0-4.5,2.142,9.62,9.62,0,0,0-3.105,3.791,10.98,10.98,0,0,0-.778,2.446,14.387,14.387,0,0,0-.259,2.809,18.016,18.016,0,0,0,.3,3.439,10.55,10.55,0,0,0,1.816,4.351,8.762,8.762,0,0,0,3.887,2.924,13.173,13.173,0,0,0,2.946.771,19.543,19.543,0,0,0,2.924.2h7.052a5.783,5.783,0,0,1,2.342.419,3.028,3.028,0,0,1,1.445,1.3,4.43,4.43,0,0,1,.482,2.179,3.513,3.513,0,0,1-.86,2.453,4.838,4.838,0,0,1-2.579,1.345,13.085,13.085,0,0,1-2.905.285q-2.362,0-4.573-.2a40.634,40.634,0,0,1-5.266-.815,33.916,33.916,0,0,1-5.151-1.582v8.164a44.881,44.881,0,0,0,14.623,2.227q16.554,0,16.55-12.247a17.442,17.442,0,0,0-.2-2.753,11.623,11.623,0,0,0-.967-3.217,8.884,8.884,0,0,0-3.98-4.117,16.739,16.739,0,0,0-7.838-1.6Z" transform="translate(-199.909 -51.483)" fill="url(#linear-gradient-5)"/>
          <path id="Trazado_102186" data-name="Trazado 102186" d="M58.459,71.167c.052-.056.063-.07.13-.145a18.629,18.629,0,0,1,5.6-4.362,15.324,15.324,0,0,1,6.685-1.571A16.506,16.506,0,0,1,83.08,70.675c3.265,3.754,5.055,7.352,5.055,12.5v21.382h-9.72V83.174c0-4.625-3.5-8.727-7.541-8.727s-7.619,4.013-7.619,8.727v21.382H53.56V83.174c0-4.714-3.42-8.727-7.619-8.727s-7.541,4.1-7.541,8.727v21.382H28.68V83.174c0-5.147,1.79-8.746,5.055-12.5A16.506,16.506,0,0,1,45.941,65.09a15.312,15.312,0,0,1,6.685,1.571,18.747,18.747,0,0,1,5.6,4.362c.067.074.078.089.13.145l.052.056.052-.056Z" transform="translate(-28.68 -51.483)" fill="url(#linear-gradient-6)"/>
        </g>
      </g>
      <path id="Trazado_102187" data-name="Trazado 102187" d="M716.67,68.868a2.2,2.2,0,0,1,.182-.893,2.371,2.371,0,0,1,.493-.73,2.307,2.307,0,0,1,.73-.493,2.287,2.287,0,0,1,1.786,0,2.312,2.312,0,0,1,1.223,1.223,2.286,2.286,0,0,1,0,1.786,2.312,2.312,0,0,1-1.223,1.223,2.287,2.287,0,0,1-1.786,0,2.37,2.37,0,0,1-.73-.493,2.308,2.308,0,0,1-.493-.73A2.188,2.188,0,0,1,716.67,68.868Zm.333,0a1.919,1.919,0,0,0,.156.767,2.023,2.023,0,0,0,.419.623,1.96,1.96,0,0,0,.623.419,1.968,1.968,0,0,0,1.534,0,2.021,2.021,0,0,0,.623-.419,1.96,1.96,0,0,0,.419-.623,1.967,1.967,0,0,0,0-1.534,2.022,2.022,0,0,0-.419-.623,1.959,1.959,0,0,0-.623-.419,1.968,1.968,0,0,0-1.534,0,2.023,2.023,0,0,0-.623.419,1.961,1.961,0,0,0-.419.623A1.894,1.894,0,0,0,717,68.868Zm1.464,1.316h-.334v-2.65h1.019a.89.89,0,0,1,.641.189.739.739,0,0,1,.193.545.876.876,0,0,1-.052.315.643.643,0,0,1-.145.219.7.7,0,0,1-.215.141,1.459,1.459,0,0,1-.256.078l.789,1.16h-.378l-.789-1.16h-.474v1.16Zm0-1.46h.426a2.2,2.2,0,0,0,.271-.011.816.816,0,0,0,.245-.056.461.461,0,0,0,.178-.137.42.42,0,0,0,.067-.256.4.4,0,0,0-.052-.211.393.393,0,0,0-.137-.133.593.593,0,0,0-.193-.07,1.085,1.085,0,0,0-.215-.022h-.593v.9Z" transform="translate(-461.719 -52.414)" fill="#f69320"/>
    </g>
  </g>
</svg>
